<svg xmlns="http://www.w3.org/2000/svg" width="528" height="502" viewBox="0 0 528 502" font-family="monospace">
<rect width="528" height="502" fill="#1b1b22"/>
<rect x="8" y="8" width="32" height="32" fill="#3d3d49" stroke="#1b1b22" stroke-width="1"/>
<rect x="40" y="8" width="32" height="32" fill="#3d3d49" stroke="#1b1b22" stroke-width="1"/>
<rect x="72" y="8" width="32" height="32" fill="#3d3d49" stroke="#1b1b22" stroke-width="1"/>
<rect x="104" y="8" width="32" height="32" fill="#3d3d49" stroke="#1b1b22" stroke-width="1"/>
<rect x="136" y="8" width="32" height="32" fill="#3d3d49" stroke="#1b1b22" stroke-width="1"/>
<rect x="168" y="8" width="32" height="32" fill="#3d3d49" stroke="#1b1b22" stroke-width="1"/>
<rect x="200" y="8" width="32" height="32" fill="#3d3d49" stroke="#1b1b22" stroke-width="1"/>
<rect x="232" y="8" width="32" height="32" fill="#3d3d49" stroke="#1b1b22" stroke-width="1"/>
<rect x="264" y="8" width="32" height="32" fill="#3d3d49" stroke="#1b1b22" stroke-width="1"/>
<rect x="296" y="8" width="32" height="32" fill="#3d3d49" stroke="#1b1b22" stroke-width="1"/>
<rect x="328" y="8" width="32" height="32" fill="#3d3d49" stroke="#1b1b22" stroke-width="1"/>
<rect x="360" y="8" width="32" height="32" fill="#3d3d49" stroke="#1b1b22" stroke-width="1"/>
<rect x="392" y="8" width="32" height="32" fill="#3d3d49" stroke="#1b1b22" stroke-width="1"/>
<rect x="424" y="8" width="32" height="32" fill="#3d3d49" stroke="#1b1b22" stroke-width="1"/>
<rect x="456" y="8" width="32" height="32" fill="#3d3d49" stroke="#1b1b22" stroke-width="1"/>
<rect x="488" y="8" width="32" height="32" fill="#3d3d49" stroke="#1b1b22" stroke-width="1"/>
<rect x="8" y="40" width="32" height="32" fill="#3d3d49" stroke="#1b1b22" stroke-width="1"/>
<rect x="40" y="40" width="32" height="32" fill="#c9bfae" stroke="#1b1b22" stroke-width="1"/>
<rect x="72" y="40" width="32" height="32" fill="#c9bfae" stroke="#1b1b22" stroke-width="1"/>
<rect x="104" y="40" width="32" height="32" fill="#c9bfae" stroke="#1b1b22" stroke-width="1"/>
<rect x="136" y="40" width="32" height="32" fill="#c9bfae" stroke="#1b1b22" stroke-width="1"/>
<rect x="168" y="40" width="32" height="32" fill="#c9bfae" stroke="#1b1b22" stroke-width="1"/>
<rect x="200" y="40" width="32" height="32" fill="#c9bfae" stroke="#1b1b22" stroke-width="1"/>
<rect x="232" y="40" width="32" height="32" fill="#c9bfae" stroke="#1b1b22" stroke-width="1"/>
<rect x="264" y="40" width="32" height="32" fill="#c9bfae" stroke="#1b1b22" stroke-width="1"/>
<rect x="296" y="40" width="32" height="32" fill="#5c1420" stroke="#1b1b22" stroke-width="1"/>
<rect x="328" y="40" width="32" height="32" fill="#c9bfae" stroke="#1b1b22" stroke-width="1"/>
<rect x="360" y="40" width="32" height="32" fill="#c9bfae" stroke="#1b1b22" stroke-width="1"/>
<rect x="392" y="40" width="32" height="32" fill="#5c1420" stroke="#1b1b22" stroke-width="1"/>
<rect x="424" y="40" width="32" height="32" fill="#c9bfae" stroke="#1b1b22" stroke-width="1"/>
<rect x="456" y="40" width="32" height="32" fill="#c9bfae" stroke="#1b1b22" stroke-width="1"/>
<rect x="488" y="40" width="32" height="32" fill="#3d3d49" stroke="#1b1b22" stroke-width="1"/>
<rect x="8" y="72" width="32" height="32" fill="#3d3d49" stroke="#1b1b22" stroke-width="1"/>
<rect x="40" y="72" width="32" height="32" fill="#c9bfae" stroke="#1b1b22" stroke-width="1"/>
<rect x="72" y="72" width="32" height="32" fill="#c9bfae" stroke="#1b1b22" stroke-width="1"/>
<rect x="104" y="72" width="32" height="32" fill="#c9bfae" stroke="#1b1b22" stroke-width="1"/>
<rect x="136" y="72" width="32" height="32" fill="#c9bfae" stroke="#1b1b22" stroke-width="1"/>
<rect x="168" y="72" width="32" height="32" fill="#3d3d49" stroke="#1b1b22" stroke-width="1"/>
<rect x="200" y="72" width="32" height="32" fill="#3d3d49" stroke="#1b1b22" stroke-width="1"/>
<rect x="232" y="72" width="32" height="32" fill="#3d3d49" stroke="#1b1b22" stroke-width="1"/>
<rect x="264" y="72" width="32" height="32" fill="#3d3d49" stroke="#1b1b22" stroke-width="1"/>
<rect x="296" y="72" width="32" height="32" fill="#3d3d49" stroke="#1b1b22" stroke-width="1"/>
<rect x="328" y="72" width="32" height="32" fill="#3d3d49" stroke="#1b1b22" stroke-width="1"/>
<rect x="360" y="72" width="32" height="32" fill="#3d3d49" stroke="#1b1b22" stroke-width="1"/>
<rect x="392" y="72" width="32" height="32" fill="#3d3d49" stroke="#1b1b22" stroke-width="1"/>
<rect x="424" y="72" width="32" height="32" fill="#3d3d49" stroke="#1b1b22" stroke-width="1"/>
<rect x="456" y="72" width="32" height="32" fill="#3d3d49" stroke="#1b1b22" stroke-width="1"/>
<rect x="488" y="72" width="32" height="32" fill="#3d3d49" stroke="#1b1b22" stroke-width="1"/>
<rect x="8" y="104" width="32" height="32" fill="#3d3d49" stroke="#1b1b22" stroke-width="1"/>
<rect x="40" y="104" width="32" height="32" fill="#c9bfae" stroke="#1b1b22" stroke-width="1"/>
<rect x="72" y="104" width="32" height="32" fill="#c9bfae" stroke="#1b1b22" stroke-width="1"/>
<rect x="104" y="104" width="32" height="32" fill="#3d3d49" stroke="#1b1b22" stroke-width="1"/>
<rect x="136" y="104" width="32" height="32" fill="#3d3d49" stroke="#1b1b22" stroke-width="1"/>
<rect x="168" y="104" width="32" height="32" fill="#3d3d49" stroke="#1b1b22" stroke-width="1"/>
<rect x="200" y="104" width="32" height="32" fill="#3d3d49" stroke="#1b1b22" stroke-width="1"/>
<rect x="232" y="104" width="32" height="32" fill="#3d3d49" stroke="#1b1b22" stroke-width="1"/>
<rect x="264" y="104" width="32" height="32" fill="#3d3d49" stroke="#1b1b22" stroke-width="1"/>
<rect x="296" y="104" width="32" height="32" fill="#3d3d49" stroke="#1b1b22" stroke-width="1"/>
<rect x="328" y="104" width="32" height="32" fill="#3d3d49" stroke="#1b1b22" stroke-width="1"/>
<rect x="360" y="104" width="32" height="32" fill="#3d3d49" stroke="#1b1b22" stroke-width="1"/>
<rect x="392" y="104" width="32" height="32" fill="#3d3d49" stroke="#1b1b22" stroke-width="1"/>
<rect x="424" y="104" width="32" height="32" fill="#3d3d49" stroke="#1b1b22" stroke-width="1"/>
<rect x="456" y="104" width="32" height="32" fill="#3d3d49" stroke="#1b1b22" stroke-width="1"/>
<rect x="488" y="104" width="32" height="32" fill="#3d3d49" stroke="#1b1b22" stroke-width="1"/>
<rect x="8" y="136" width="32" height="32" fill="#3d3d49" stroke="#1b1b22" stroke-width="1"/>
<rect x="40" y="136" width="32" height="32" fill="#c9bfae" stroke="#1b1b22" stroke-width="1"/>
<rect x="72" y="136" width="32" height="32" fill="#c9bfae" stroke="#1b1b22" stroke-width="1"/>
<rect x="104" y="136" width="32" height="32" fill="#3d3d49" stroke="#1b1b22" stroke-width="1"/>
<rect x="136" y="136" width="32" height="32" fill="#3d3d49" stroke="#1b1b22" stroke-width="1"/>
<rect x="168" y="136" width="32" height="32" fill="#3d3d49" stroke="#1b1b22" stroke-width="1"/>
<rect x="200" y="136" width="32" height="32" fill="#3d3d49" stroke="#1b1b22" stroke-width="1"/>
<rect x="232" y="136" width="32" height="32" fill="#3d3d49" stroke="#1b1b22" stroke-width="1"/>
<rect x="264" y="136" width="32" height="32" fill="#3d3d49" stroke="#1b1b22" stroke-width="1"/>
<rect x="296" y="136" width="32" height="32" fill="#3d3d49" stroke="#1b1b22" stroke-width="1"/>
<rect x="328" y="136" width="32" height="32" fill="#3d3d49" stroke="#1b1b22" stroke-width="1"/>
<rect x="360" y="136" width="32" height="32" fill="#3d3d49" stroke="#1b1b22" stroke-width="1"/>
<rect x="392" y="136" width="32" height="32" fill="#3d3d49" stroke="#1b1b22" stroke-width="1"/>
<rect x="424" y="136" width="32" height="32" fill="#3d3d49" stroke="#1b1b22" stroke-width="1"/>
<rect x="456" y="136" width="32" height="32" fill="#3d3d49" stroke="#1b1b22" stroke-width="1"/>
<rect x="488" y="136" width="32" height="32" fill="#3d3d49" stroke="#1b1b22" stroke-width="1"/>
<rect x="8" y="168" width="32" height="32" fill="#3d3d49" stroke="#1b1b22" stroke-width="1"/>
<rect x="40" y="168" width="32" height="32" fill="#c9bfae" stroke="#1b1b22" stroke-width="1"/>
<rect x="72" y="168" width="32" height="32" fill="#c9bfae" stroke="#1b1b22" stroke-width="1"/>
<rect x="104" y="168" width="32" height="32" fill="#3d3d49" stroke="#1b1b22" stroke-width="1"/>
<rect x="136" y="168" width="32" height="32" fill="#3d3d49" stroke="#1b1b22" stroke-width="1"/>
<rect x="168" y="168" width="32" height="32" fill="#3d3d49" stroke="#1b1b22" stroke-width="1"/>
<rect x="200" y="168" width="32" height="32" fill="#3d3d49" stroke="#1b1b22" stroke-width="1"/>
<rect x="232" y="168" width="32" height="32" fill="#3d3d49" stroke="#1b1b22" stroke-width="1"/>
<rect x="264" y="168" width="32" height="32" fill="#3d3d49" stroke="#1b1b22" stroke-width="1"/>
<rect x="296" y="168" width="32" height="32" fill="#3d3d49" stroke="#1b1b22" stroke-width="1"/>
<rect x="328" y="168" width="32" height="32" fill="#3d3d49" stroke="#1b1b22" stroke-width="1"/>
<rect x="360" y="168" width="32" height="32" fill="#3d3d49" stroke="#1b1b22" stroke-width="1"/>
<rect x="392" y="168" width="32" height="32" fill="#3d3d49" stroke="#1b1b22" stroke-width="1"/>
<rect x="424" y="168" width="32" height="32" fill="#3d3d49" stroke="#1b1b22" stroke-width="1"/>
<rect x="456" y="168" width="32" height="32" fill="#3d3d49" stroke="#1b1b22" stroke-width="1"/>
<rect x="488" y="168" width="32" height="32" fill="#3d3d49" stroke="#1b1b22" stroke-width="1"/>
<rect x="8" y="200" width="32" height="32" fill="#3d3d49" stroke="#1b1b22" stroke-width="1"/>
<rect x="40" y="200" width="32" height="32" fill="#c9bfae" stroke="#1b1b22" stroke-width="1"/>
<rect x="72" y="200" width="32" height="32" fill="#c9bfae" stroke="#1b1b22" stroke-width="1"/>
<rect x="104" y="200" width="32" height="32" fill="#c9bfae" stroke="#1b1b22" stroke-width="1"/>
<rect x="136" y="200" width="32" height="32" fill="#c9bfae" stroke="#1b1b22" stroke-width="1"/>
<rect x="168" y="200" width="32" height="32" fill="#c9bfae" stroke="#1b1b22" stroke-width="1"/>
<rect x="200" y="200" width="32" height="32" fill="#c9bfae" stroke="#1b1b22" stroke-width="1"/>
<rect x="232" y="200" width="32" height="32" fill="#c9bfae" stroke="#1b1b22" stroke-width="1"/>
<rect x="264" y="200" width="32" height="32" fill="#c9bfae" stroke="#1b1b22" stroke-width="1"/>
<rect x="296" y="200" width="32" height="32" fill="#c9bfae" stroke="#1b1b22" stroke-width="1"/>
<rect x="328" y="200" width="32" height="32" fill="#c9bfae" stroke="#1b1b22" stroke-width="1"/>
<rect x="360" y="200" width="32" height="32" fill="#c9bfae" stroke="#1b1b22" stroke-width="1"/>
<rect x="392" y="200" width="32" height="32" fill="#c9bfae" stroke="#1b1b22" stroke-width="1"/>
<rect x="424" y="200" width="32" height="32" fill="#c9bfae" stroke="#1b1b22" stroke-width="1"/>
<rect x="456" y="200" width="32" height="32" fill="#c9bfae" stroke="#1b1b22" stroke-width="1"/>
<rect x="488" y="200" width="32" height="32" fill="#3d3d49" stroke="#1b1b22" stroke-width="1"/>
<rect x="8" y="232" width="32" height="32" fill="#3d3d49" stroke="#1b1b22" stroke-width="1"/>
<rect x="40" y="232" width="32" height="32" fill="#3d3d49" stroke="#1b1b22" stroke-width="1"/>
<rect x="72" y="232" width="32" height="32" fill="#3d3d49" stroke="#1b1b22" stroke-width="1"/>
<rect x="104" y="232" width="32" height="32" fill="#3d3d49" stroke="#1b1b22" stroke-width="1"/>
<rect x="136" y="232" width="32" height="32" fill="#3d3d49" stroke="#1b1b22" stroke-width="1"/>
<rect x="168" y="232" width="32" height="32" fill="#3d3d49" stroke="#1b1b22" stroke-width="1"/>
<rect x="200" y="232" width="32" height="32" fill="#3d3d49" stroke="#1b1b22" stroke-width="1"/>
<rect x="232" y="232" width="32" height="32" fill="#5c1420" stroke="#1b1b22" stroke-width="1"/>
<rect x="264" y="232" width="32" height="32" fill="#3d3d49" stroke="#1b1b22" stroke-width="1"/>
<rect x="296" y="232" width="32" height="32" fill="#3d3d49" stroke="#1b1b22" stroke-width="1"/>
<rect x="328" y="232" width="32" height="32" fill="#c9bfae" stroke="#1b1b22" stroke-width="1"/>
<rect x="360" y="232" width="32" height="32" fill="#3d3d49" stroke="#1b1b22" stroke-width="1"/>
<rect x="392" y="232" width="32" height="32" fill="#3d3d49" stroke="#1b1b22" stroke-width="1"/>
<rect x="424" y="232" width="32" height="32" fill="#3d3d49" stroke="#1b1b22" stroke-width="1"/>
<rect x="456" y="232" width="32" height="32" fill="#3d3d49" stroke="#1b1b22" stroke-width="1"/>
<rect x="488" y="232" width="32" height="32" fill="#3d3d49" stroke="#1b1b22" stroke-width="1"/>
<rect x="8" y="264" width="32" height="32" fill="#3d3d49" stroke="#1b1b22" stroke-width="1"/>
<rect x="40" y="264" width="32" height="32" fill="#3d3d49" stroke="#1b1b22" stroke-width="1"/>
<rect x="72" y="264" width="32" height="32" fill="#3d3d49" stroke="#1b1b22" stroke-width="1"/>
<rect x="104" y="264" width="32" height="32" fill="#3d3d49" stroke="#1b1b22" stroke-width="1"/>
<rect x="136" y="264" width="32" height="32" fill="#3d3d49" stroke="#1b1b22" stroke-width="1"/>
<rect x="168" y="264" width="32" height="32" fill="#3d3d49" stroke="#1b1b22" stroke-width="1"/>
<rect x="200" y="264" width="32" height="32" fill="#3d3d49" stroke="#1b1b22" stroke-width="1"/>
<rect x="232" y="264" width="32" height="32" fill="#c9bfae" stroke="#1b1b22" stroke-width="1"/>
<rect x="264" y="264" width="32" height="32" fill="#3d3d49" stroke="#1b1b22" stroke-width="1"/>
<rect x="296" y="264" width="32" height="32" fill="#3d3d49" stroke="#1b1b22" stroke-width="1"/>
<rect x="328" y="264" width="32" height="32" fill="#5c1420" stroke="#1b1b22" stroke-width="1"/>
<rect x="360" y="264" width="32" height="32" fill="#3d3d49" stroke="#1b1b22" stroke-width="1"/>
<rect x="392" y="264" width="32" height="32" fill="#3d3d49" stroke="#1b1b22" stroke-width="1"/>
<rect x="424" y="264" width="32" height="32" fill="#3d3d49" stroke="#1b1b22" stroke-width="1"/>
<rect x="456" y="264" width="32" height="32" fill="#3d3d49" stroke="#1b1b22" stroke-width="1"/>
<rect x="488" y="264" width="32" height="32" fill="#3d3d49" stroke="#1b1b22" stroke-width="1"/>
<rect x="8" y="296" width="32" height="32" fill="#3d3d49" stroke="#1b1b22" stroke-width="1"/>
<rect x="40" y="296" width="32" height="32" fill="#3d3d49" stroke="#1b1b22" stroke-width="1"/>
<rect x="72" y="296" width="32" height="32" fill="#3d3d49" stroke="#1b1b22" stroke-width="1"/>
<rect x="104" y="296" width="32" height="32" fill="#3d3d49" stroke="#1b1b22" stroke-width="1"/>
<rect x="136" y="296" width="32" height="32" fill="#3d3d49" stroke="#1b1b22" stroke-width="1"/>
<rect x="168" y="296" width="32" height="32" fill="#3d3d49" stroke="#1b1b22" stroke-width="1"/>
<rect x="200" y="296" width="32" height="32" fill="#3d3d49" stroke="#1b1b22" stroke-width="1"/>
<rect x="232" y="296" width="32" height="32" fill="#3d3d49" stroke="#1b1b22" stroke-width="1"/>
<rect x="264" y="296" width="32" height="32" fill="#3d3d49" stroke="#1b1b22" stroke-width="1"/>
<rect x="296" y="296" width="32" height="32" fill="#3d3d49" stroke="#1b1b22" stroke-width="1"/>
<rect x="328" y="296" width="32" height="32" fill="#5c1420" stroke="#1b1b22" stroke-width="1"/>
<rect x="360" y="296" width="32" height="32" fill="#c9bfae" stroke="#1b1b22" stroke-width="1"/>
<rect x="392" y="296" width="32" height="32" fill="#3d3d49" stroke="#1b1b22" stroke-width="1"/>
<rect x="424" y="296" width="32" height="32" fill="#3d3d49" stroke="#1b1b22" stroke-width="1"/>
<rect x="456" y="296" width="32" height="32" fill="#3d3d49" stroke="#1b1b22" stroke-width="1"/>
<rect x="488" y="296" width="32" height="32" fill="#3d3d49" stroke="#1b1b22" stroke-width="1"/>
<rect x="8" y="328" width="32" height="32" fill="#3d3d49" stroke="#1b1b22" stroke-width="1"/>
<rect x="40" y="328" width="32" height="32" fill="#3d3d49" stroke="#1b1b22" stroke-width="1"/>
<rect x="72" y="328" width="32" height="32" fill="#3d3d49" stroke="#1b1b22" stroke-width="1"/>
<rect x="104" y="328" width="32" height="32" fill="#3d3d49" stroke="#1b1b22" stroke-width="1"/>
<rect x="136" y="328" width="32" height="32" fill="#3d3d49" stroke="#1b1b22" stroke-width="1"/>
<rect x="168" y="328" width="32" height="32" fill="#3d3d49" stroke="#1b1b22" stroke-width="1"/>
<rect x="200" y="328" width="32" height="32" fill="#3d3d49" stroke="#1b1b22" stroke-width="1"/>
<rect x="232" y="328" width="32" height="32" fill="#3d3d49" stroke="#1b1b22" stroke-width="1"/>
<rect x="264" y="328" width="32" height="32" fill="#3d3d49" stroke="#1b1b22" stroke-width="1"/>
<rect x="296" y="328" width="32" height="32" fill="#3d3d49" stroke="#1b1b22" stroke-width="1"/>
<rect x="328" y="328" width="32" height="32" fill="#3d3d49" stroke="#1b1b22" stroke-width="1"/>
<rect x="360" y="328" width="32" height="32" fill="#3d3d49" stroke="#1b1b22" stroke-width="1"/>
<rect x="392" y="328" width="32" height="32" fill="#3d3d49" stroke="#1b1b22" stroke-width="1"/>
<rect x="424" y="328" width="32" height="32" fill="#3d3d49" stroke="#1b1b22" stroke-width="1"/>
<rect x="456" y="328" width="32" height="32" fill="#3d3d49" stroke="#1b1b22" stroke-width="1"/>
<rect x="488" y="328" width="32" height="32" fill="#3d3d49" stroke="#1b1b22" stroke-width="1"/>
<rect x="200" y="40" width="32" height="32" fill="#6b4fa0" stroke="#2c2140" stroke-width="2" fill-opacity="0.85"/>
<text x="216" y="61" fill="#f2ecff" font-size="16" text-anchor="middle" font-weight="bold">N</text>
<rect x="232" y="40" width="32" height="32" fill="#6b4fa0" stroke="#2c2140" stroke-width="2" fill-opacity="0.85"/>
<text x="248" y="61" fill="#f2ecff" font-size="16" text-anchor="middle" font-weight="bold">N</text>
<rect x="264" y="40" width="32" height="32" fill="#6b4fa0" stroke="#2c2140" stroke-width="2" fill-opacity="0.85"/>
<text x="280" y="61" fill="#f2ecff" font-size="16" text-anchor="middle" font-weight="bold">N</text>
<rect x="296" y="40" width="32" height="32" fill="#6b4fa0" stroke="#2c2140" stroke-width="2" fill-opacity="0.85"/>
<text x="312" y="61" fill="#f2ecff" font-size="16" text-anchor="middle" font-weight="bold">P</text>
<rect x="328" y="264" width="32" height="32" fill="#6b4fa0" stroke="#2c2140" stroke-width="2" fill-opacity="0.85"/>
<text x="344" y="285" fill="#f2ecff" font-size="16" text-anchor="middle" font-weight="bold">S</text>
<rect x="328" y="296" width="32" height="32" fill="#6b4fa0" stroke="#2c2140" stroke-width="2" fill-opacity="0.85"/>
<text x="344" y="317" fill="#f2ecff" font-size="16" text-anchor="middle" font-weight="bold">S</text>
<rect x="136" y="72" width="32" height="32" fill="#d9a441" stroke="#6e5012" stroke-width="2"/>
<text x="152" y="93" fill="#40300a" font-size="16" text-anchor="middle" font-weight="bold">1</text>
<rect x="232" y="264" width="32" height="32" fill="#d9a441" stroke="#6e5012" stroke-width="2"/>
<text x="248" y="285" fill="#40300a" font-size="16" text-anchor="middle" font-weight="bold">2</text>
<rect x="424" y="40" width="32" height="32" fill="#7fa66b" stroke="#3d2a1c" stroke-width="2"/>
<text x="440" y="61" fill="#fff6e8" font-size="16" text-anchor="middle" font-weight="bold">O</text>
<circle cx="312" cy="216" r="11" fill="#e07a9a" stroke="#5c2237" stroke-width="2"/>
<text x="312" y="221" fill="#ffffff" font-size="16" text-anchor="middle" font-weight="bold">@</text>
<circle cx="184" cy="216" r="11" fill="#8d99ae" stroke="#2b3040" stroke-width="2"/>
<text x="184" y="221" fill="#ffffff" font-size="16" text-anchor="middle" font-weight="bold">C</text>
<text x="8" y="380" fill="#cfc6b8" font-size="13">level4_reconstruction · souls: 9</text>
<text x="8" y="398" fill="#cfc6b8" font-size="13">1 -&gt; S</text>
<text x="8" y="416" fill="#cfc6b8" font-size="13">2 -&gt; N, P</text>
<text x="8" y="434" fill="#cfc6b8" font-size="13">N: initial=CLOSED</text>
<text x="8" y="452" fill="#cfc6b8" font-size="13">P: initial=CLOSED over=PIT</text>
<text x="8" y="470" fill="#cfc6b8" font-size="13">S: initial=CLOSED over=PIT</text>
<text x="8" y="488" fill="#cfc6b8" font-size="13">decoys: 1, S</text>
</svg>
