<svg xmlns="http://www.w3.org/2000/svg" width="368" height="306" viewBox="0 0 368 306" font-family="monospace">
<rect width="368" height="306" fill="#1b1b22"/>
<rect x="8" y="8" width="32" height="32" fill="#3d3d49" stroke="#1b1b22" stroke-width="1"/>
<rect x="40" y="8" width="32" height="32" fill="#3d3d49" stroke="#1b1b22" stroke-width="1"/>
<rect x="72" y="8" width="32" height="32" fill="#3d3d49" stroke="#1b1b22" stroke-width="1"/>
<rect x="104" y="8" width="32" height="32" fill="#3d3d49" stroke="#1b1b22" stroke-width="1"/>
<rect x="136" y="8" width="32" height="32" fill="#3d3d49" stroke="#1b1b22" stroke-width="1"/>
<rect x="168" y="8" width="32" height="32" fill="#3d3d49" stroke="#1b1b22" stroke-width="1"/>
<rect x="200" y="8" width="32" height="32" fill="#3d3d49" stroke="#1b1b22" stroke-width="1"/>
<rect x="232" y="8" width="32" height="32" fill="#3d3d49" stroke="#1b1b22" stroke-width="1"/>
<rect x="264" y="8" width="32" height="32" fill="#3d3d49" stroke="#1b1b22" stroke-width="1"/>
<rect x="296" y="8" width="32" height="32" fill="#3d3d49" stroke="#1b1b22" stroke-width="1"/>
<rect x="328" y="8" width="32" height="32" fill="#3d3d49" stroke="#1b1b22" stroke-width="1"/>
<rect x="8" y="40" width="32" height="32" fill="#3d3d49" stroke="#1b1b22" stroke-width="1"/>
<rect x="40" y="40" width="32" height="32" fill="#c9bfae" stroke="#1b1b22" stroke-width="1"/>
<rect x="72" y="40" width="32" height="32" fill="#c9bfae" stroke="#1b1b22" stroke-width="1"/>
<rect x="104" y="40" width="32" height="32" fill="#c9bfae" stroke="#1b1b22" stroke-width="1"/>
<rect x="136" y="40" width="32" height="32" fill="#5c1420" stroke="#1b1b22" stroke-width="1"/>
<rect x="168" y="40" width="32" height="32" fill="#5c1420" stroke="#1b1b22" stroke-width="1"/>
<rect x="200" y="40" width="32" height="32" fill="#5c1420" stroke="#1b1b22" stroke-width="1"/>
<rect x="232" y="40" width="32" height="32" fill="#c9bfae" stroke="#1b1b22" stroke-width="1"/>
<rect x="264" y="40" width="32" height="32" fill="#c9bfae" stroke="#1b1b22" stroke-width="1"/>
<rect x="296" y="40" width="32" height="32" fill="#c9bfae" stroke="#1b1b22" stroke-width="1"/>
<rect x="328" y="40" width="32" height="32" fill="#3d3d49" stroke="#1b1b22" stroke-width="1"/>
<rect x="8" y="72" width="32" height="32" fill="#3d3d49" stroke="#1b1b22" stroke-width="1"/>
<rect x="40" y="72" width="32" height="32" fill="#c9bfae" stroke="#1b1b22" stroke-width="1"/>
<rect x="72" y="72" width="32" height="32" fill="#c9bfae" stroke="#1b1b22" stroke-width="1"/>
<rect x="104" y="72" width="32" height="32" fill="#c9bfae" stroke="#1b1b22" stroke-width="1"/>
<rect x="136" y="72" width="32" height="32" fill="#5c1420" stroke="#1b1b22" stroke-width="1"/>
<rect x="168" y="72" width="32" height="32" fill="#5c1420" stroke="#1b1b22" stroke-width="1"/>
<rect x="200" y="72" width="32" height="32" fill="#5c1420" stroke="#1b1b22" stroke-width="1"/>
<rect x="232" y="72" width="32" height="32" fill="#c9bfae" stroke="#1b1b22" stroke-width="1"/>
<rect x="264" y="72" width="32" height="32" fill="#c9bfae" stroke="#1b1b22" stroke-width="1"/>
<rect x="296" y="72" width="32" height="32" fill="#c9bfae" stroke="#1b1b22" stroke-width="1"/>
<rect x="328" y="72" width="32" height="32" fill="#3d3d49" stroke="#1b1b22" stroke-width="1"/>
<rect x="8" y="104" width="32" height="32" fill="#3d3d49" stroke="#1b1b22" stroke-width="1"/>
<rect x="40" y="104" width="32" height="32" fill="#c9bfae" stroke="#1b1b22" stroke-width="1"/>
<rect x="72" y="104" width="32" height="32" fill="#c9bfae" stroke="#1b1b22" stroke-width="1"/>
<rect x="104" y="104" width="32" height="32" fill="#c9bfae" stroke="#1b1b22" stroke-width="1"/>
<rect x="136" y="104" width="32" height="32" fill="#5c1420" stroke="#1b1b22" stroke-width="1"/>
<rect x="168" y="104" width="32" height="32" fill="#5c1420" stroke="#1b1b22" stroke-width="1"/>
<rect x="200" y="104" width="32" height="32" fill="#5c1420" stroke="#1b1b22" stroke-width="1"/>
<rect x="232" y="104" width="32" height="32" fill="#c9bfae" stroke="#1b1b22" stroke-width="1"/>
<rect x="264" y="104" width="32" height="32" fill="#c9bfae" stroke="#1b1b22" stroke-width="1"/>
<rect x="296" y="104" width="32" height="32" fill="#c9bfae" stroke="#1b1b22" stroke-width="1"/>
<rect x="328" y="104" width="32" height="32" fill="#3d3d49" stroke="#1b1b22" stroke-width="1"/>
<rect x="8" y="136" width="32" height="32" fill="#3d3d49" stroke="#1b1b22" stroke-width="1"/>
<rect x="40" y="136" width="32" height="32" fill="#c9bfae" stroke="#1b1b22" stroke-width="1"/>
<rect x="72" y="136" width="32" height="32" fill="#c9bfae" stroke="#1b1b22" stroke-width="1"/>
<rect x="104" y="136" width="32" height="32" fill="#c9bfae" stroke="#1b1b22" stroke-width="1"/>
<rect x="136" y="136" width="32" height="32" fill="#5c1420" stroke="#1b1b22" stroke-width="1"/>
<rect x="168" y="136" width="32" height="32" fill="#5c1420" stroke="#1b1b22" stroke-width="1"/>
<rect x="200" y="136" width="32" height="32" fill="#5c1420" stroke="#1b1b22" stroke-width="1"/>
<rect x="232" y="136" width="32" height="32" fill="#c9bfae" stroke="#1b1b22" stroke-width="1"/>
<rect x="264" y="136" width="32" height="32" fill="#c9bfae" stroke="#1b1b22" stroke-width="1"/>
<rect x="296" y="136" width="32" height="32" fill="#c9bfae" stroke="#1b1b22" stroke-width="1"/>
<rect x="328" y="136" width="32" height="32" fill="#3d3d49" stroke="#1b1b22" stroke-width="1"/>
<rect x="8" y="168" width="32" height="32" fill="#3d3d49" stroke="#1b1b22" stroke-width="1"/>
<rect x="40" y="168" width="32" height="32" fill="#3d3d49" stroke="#1b1b22" stroke-width="1"/>
<rect x="72" y="168" width="32" height="32" fill="#3d3d49" stroke="#1b1b22" stroke-width="1"/>
<rect x="104" y="168" width="32" height="32" fill="#3d3d49" stroke="#1b1b22" stroke-width="1"/>
<rect x="136" y="168" width="32" height="32" fill="#3d3d49" stroke="#1b1b22" stroke-width="1"/>
<rect x="168" y="168" width="32" height="32" fill="#3d3d49" stroke="#1b1b22" stroke-width="1"/>
<rect x="200" y="168" width="32" height="32" fill="#3d3d49" stroke="#1b1b22" stroke-width="1"/>
<rect x="232" y="168" width="32" height="32" fill="#3d3d49" stroke="#1b1b22" stroke-width="1"/>
<rect x="264" y="168" width="32" height="32" fill="#3d3d49" stroke="#1b1b22" stroke-width="1"/>
<rect x="296" y="168" width="32" height="32" fill="#3d3d49" stroke="#1b1b22" stroke-width="1"/>
<rect x="328" y="168" width="32" height="32" fill="#3d3d49" stroke="#1b1b22" stroke-width="1"/>
<rect x="168" y="72" width="32" height="32" fill="#6b4fa0" stroke="#2c2140" stroke-width="2" fill-opacity="0.85"/>
<text x="184" y="93" fill="#f2ecff" font-size="16" text-anchor="middle" font-weight="bold">A</text>
<rect x="104" y="104" width="32" height="32" fill="#d9a441" stroke="#6e5012" stroke-width="2"/>
<text x="120" y="125" fill="#40300a" font-size="16" text-anchor="middle" font-weight="bold">1</text>
<rect x="296" y="104" width="32" height="32" fill="#d9a441" stroke="#6e5012" stroke-width="2"/>
<text x="312" y="125" fill="#40300a" font-size="16" text-anchor="middle" font-weight="bold">2</text>
<rect x="296" y="72" width="32" height="32" fill="#8a5a3c" stroke="#3d2a1c" stroke-width="2"/>
<text x="312" y="93" fill="#fff6e8" font-size="16" text-anchor="middle" font-weight="bold">X</text>
<circle cx="56" cy="88" r="11" fill="#e07a9a" stroke="#5c2237" stroke-width="2"/>
<text x="56" y="93" fill="#ffffff" font-size="16" text-anchor="middle" font-weight="bold">@</text>
<circle cx="56" cy="120" r="11" fill="#8d99ae" stroke="#2b3040" stroke-width="2"/>
<text x="56" y="125" fill="#ffffff" font-size="16" text-anchor="middle" font-weight="bold">C</text>
<text x="8" y="220" fill="#cfc6b8" font-size="13">new_level · souls: 9</text>
<text x="8" y="238" fill="#cfc6b8" font-size="13">1 -&gt; A, d1</text>
<text x="8" y="256" fill="#cfc6b8" font-size="13">2 -&gt; A</text>
<text x="8" y="274" fill="#cfc6b8" font-size="13">A: initial=CLOSED over=PIT</text>
<text x="8" y="292" fill="#cfc6b8" font-size="13">decoys: 2</text>
</svg>
