<svg xmlns="http://www.w3.org/2000/svg" width="528" height="380" viewBox="0 0 528 380" font-family="monospace">
<rect width="528" height="380" fill="#1b1b22"/>
<rect x="8" y="8" width="32" height="32" fill="#3d3d49" stroke="#1b1b22" stroke-width="1"/>
<rect x="40" y="8" width="32" height="32" fill="#3d3d49" stroke="#1b1b22" stroke-width="1"/>
<rect x="72" y="8" width="32" height="32" fill="#3d3d49" stroke="#1b1b22" stroke-width="1"/>
<rect x="104" y="8" width="32" height="32" fill="#3d3d49" stroke="#1b1b22" stroke-width="1"/>
<rect x="136" y="8" width="32" height="32" fill="#3d3d49" stroke="#1b1b22" stroke-width="1"/>
<rect x="168" y="8" width="32" height="32" fill="#3d3d49" stroke="#1b1b22" stroke-width="1"/>
<rect x="200" y="8" width="32" height="32" fill="#3d3d49" stroke="#1b1b22" stroke-width="1"/>
<rect x="232" y="8" width="32" height="32" fill="#3d3d49" stroke="#1b1b22" stroke-width="1"/>
<rect x="264" y="8" width="32" height="32" fill="#3d3d49" stroke="#1b1b22" stroke-width="1"/>
<rect x="296" y="8" width="32" height="32" fill="#3d3d49" stroke="#1b1b22" stroke-width="1"/>
<rect x="328" y="8" width="32" height="32" fill="#3d3d49" stroke="#1b1b22" stroke-width="1"/>
<rect x="360" y="8" width="32" height="32" fill="#3d3d49" stroke="#1b1b22" stroke-width="1"/>
<rect x="392" y="8" width="32" height="32" fill="#3d3d49" stroke="#1b1b22" stroke-width="1"/>
<rect x="424" y="8" width="32" height="32" fill="#3d3d49" stroke="#1b1b22" stroke-width="1"/>
<rect x="456" y="8" width="32" height="32" fill="#3d3d49" stroke="#1b1b22" stroke-width="1"/>
<rect x="488" y="8" width="32" height="32" fill="#3d3d49" stroke="#1b1b22" stroke-width="1"/>
<rect x="8" y="40" width="32" height="32" fill="#3d3d49" stroke="#1b1b22" stroke-width="1"/>
<rect x="40" y="40" width="32" height="32" fill="#c9bfae" stroke="#1b1b22" stroke-width="1"/>
<rect x="72" y="40" width="32" height="32" fill="#c9bfae" stroke="#1b1b22" stroke-width="1"/>
<rect x="104" y="40" width="32" height="32" fill="#c9bfae" stroke="#1b1b22" stroke-width="1"/>
<rect x="136" y="40" width="32" height="32" fill="#c9bfae" stroke="#1b1b22" stroke-width="1"/>
<rect x="168" y="40" width="32" height="32" fill="#c9bfae" stroke="#1b1b22" stroke-width="1"/>
<rect x="200" y="40" width="32" height="32" fill="#c9bfae" stroke="#1b1b22" stroke-width="1"/>
<rect x="232" y="40" width="32" height="32" fill="#c9bfae" stroke="#1b1b22" stroke-width="1"/>
<rect x="264" y="40" width="32" height="32" fill="#c9bfae" stroke="#1b1b22" stroke-width="1"/>
<rect x="296" y="40" width="32" height="32" fill="#c9bfae" stroke="#1b1b22" stroke-width="1"/>
<rect x="328" y="40" width="32" height="32" fill="#c9bfae" stroke="#1b1b22" stroke-width="1"/>
<rect x="360" y="40" width="32" height="32" fill="#c9bfae" stroke="#1b1b22" stroke-width="1"/>
<rect x="392" y="40" width="32" height="32" fill="#c9bfae" stroke="#1b1b22" stroke-width="1"/>
<rect x="424" y="40" width="32" height="32" fill="#c9bfae" stroke="#1b1b22" stroke-width="1"/>
<rect x="456" y="40" width="32" height="32" fill="#c9bfae" stroke="#1b1b22" stroke-width="1"/>
<rect x="488" y="40" width="32" height="32" fill="#3d3d49" stroke="#1b1b22" stroke-width="1"/>
<rect x="8" y="72" width="32" height="32" fill="#3d3d49" stroke="#1b1b22" stroke-width="1"/>
<rect x="40" y="72" width="32" height="32" fill="#c9bfae" stroke="#1b1b22" stroke-width="1"/>
<rect x="72" y="72" width="32" height="32" fill="#c9bfae" stroke="#1b1b22" stroke-width="1"/>
<rect x="104" y="72" width="32" height="32" fill="#c9bfae" stroke="#1b1b22" stroke-width="1"/>
<rect x="136" y="72" width="32" height="32" fill="#c9bfae" stroke="#1b1b22" stroke-width="1"/>
<rect x="168" y="72" width="32" height="32" fill="#c9bfae" stroke="#1b1b22" stroke-width="1"/>
<rect x="200" y="72" width="32" height="32" fill="#c9bfae" stroke="#1b1b22" stroke-width="1"/>
<rect x="232" y="72" width="32" height="32" fill="#c9bfae" stroke="#1b1b22" stroke-width="1"/>
<rect x="264" y="72" width="32" height="32" fill="#c9bfae" stroke="#1b1b22" stroke-width="1"/>
<rect x="296" y="72" width="32" height="32" fill="#c9bfae" stroke="#1b1b22" stroke-width="1"/>
<rect x="328" y="72" width="32" height="32" fill="#c9bfae" stroke="#1b1b22" stroke-width="1"/>
<rect x="360" y="72" width="32" height="32" fill="#c9bfae" stroke="#1b1b22" stroke-width="1"/>
<rect x="392" y="72" width="32" height="32" fill="#c9bfae" stroke="#1b1b22" stroke-width="1"/>
<rect x="424" y="72" width="32" height="32" fill="#c9bfae" stroke="#1b1b22" stroke-width="1"/>
<rect x="456" y="72" width="32" height="32" fill="#c9bfae" stroke="#1b1b22" stroke-width="1"/>
<rect x="488" y="72" width="32" height="32" fill="#3d3d49" stroke="#1b1b22" stroke-width="1"/>
<rect x="8" y="104" width="32" height="32" fill="#3d3d49" stroke="#1b1b22" stroke-width="1"/>
<rect x="40" y="104" width="32" height="32" fill="#c9bfae" stroke="#1b1b22" stroke-width="1"/>
<rect x="72" y="104" width="32" height="32" fill="#c9bfae" stroke="#1b1b22" stroke-width="1"/>
<rect x="104" y="104" width="32" height="32" fill="#c9bfae" stroke="#1b1b22" stroke-width="1"/>
<rect x="136" y="104" width="32" height="32" fill="#c9bfae" stroke="#1b1b22" stroke-width="1"/>
<rect x="168" y="104" width="32" height="32" fill="#c9bfae" stroke="#1b1b22" stroke-width="1"/>
<rect x="200" y="104" width="32" height="32" fill="#c9bfae" stroke="#1b1b22" stroke-width="1"/>
<rect x="232" y="104" width="32" height="32" fill="#c9bfae" stroke="#1b1b22" stroke-width="1"/>
<rect x="264" y="104" width="32" height="32" fill="#c9bfae" stroke="#1b1b22" stroke-width="1"/>
<rect x="296" y="104" width="32" height="32" fill="#c9bfae" stroke="#1b1b22" stroke-width="1"/>
<rect x="328" y="104" width="32" height="32" fill="#c9bfae" stroke="#1b1b22" stroke-width="1"/>
<rect x="360" y="104" width="32" height="32" fill="#c9bfae" stroke="#1b1b22" stroke-width="1"/>
<rect x="392" y="104" width="32" height="32" fill="#c9bfae" stroke="#1b1b22" stroke-width="1"/>
<rect x="424" y="104" width="32" height="32" fill="#c9bfae" stroke="#1b1b22" stroke-width="1"/>
<rect x="456" y="104" width="32" height="32" fill="#c9bfae" stroke="#1b1b22" stroke-width="1"/>
<rect x="488" y="104" width="32" height="32" fill="#3d3d49" stroke="#1b1b22" stroke-width="1"/>
<rect x="8" y="136" width="32" height="32" fill="#3d3d49" stroke="#1b1b22" stroke-width="1"/>
<rect x="40" y="136" width="32" height="32" fill="#c9bfae" stroke="#1b1b22" stroke-width="1"/>
<rect x="72" y="136" width="32" height="32" fill="#c9bfae" stroke="#1b1b22" stroke-width="1"/>
<rect x="104" y="136" width="32" height="32" fill="#c9bfae" stroke="#1b1b22" stroke-width="1"/>
<rect x="136" y="136" width="32" height="32" fill="#c9bfae" stroke="#1b1b22" stroke-width="1"/>
<rect x="168" y="136" width="32" height="32" fill="#c9bfae" stroke="#1b1b22" stroke-width="1"/>
<rect x="200" y="136" width="32" height="32" fill="#c9bfae" stroke="#1b1b22" stroke-width="1"/>
<rect x="232" y="136" width="32" height="32" fill="#c9bfae" stroke="#1b1b22" stroke-width="1"/>
<rect x="264" y="136" width="32" height="32" fill="#c9bfae" stroke="#1b1b22" stroke-width="1"/>
<rect x="296" y="136" width="32" height="32" fill="#c9bfae" stroke="#1b1b22" stroke-width="1"/>
<rect x="328" y="136" width="32" height="32" fill="#c9bfae" stroke="#1b1b22" stroke-width="1"/>
<rect x="360" y="136" width="32" height="32" fill="#c9bfae" stroke="#1b1b22" stroke-width="1"/>
<rect x="392" y="136" width="32" height="32" fill="#c9bfae" stroke="#1b1b22" stroke-width="1"/>
<rect x="424" y="136" width="32" height="32" fill="#c9bfae" stroke="#1b1b22" stroke-width="1"/>
<rect x="456" y="136" width="32" height="32" fill="#c9bfae" stroke="#1b1b22" stroke-width="1"/>
<rect x="488" y="136" width="32" height="32" fill="#3d3d49" stroke="#1b1b22" stroke-width="1"/>
<rect x="8" y="168" width="32" height="32" fill="#3d3d49" stroke="#1b1b22" stroke-width="1"/>
<rect x="40" y="168" width="32" height="32" fill="#c9bfae" stroke="#1b1b22" stroke-width="1"/>
<rect x="72" y="168" width="32" height="32" fill="#c9bfae" stroke="#1b1b22" stroke-width="1"/>
<rect x="104" y="168" width="32" height="32" fill="#c9bfae" stroke="#1b1b22" stroke-width="1"/>
<rect x="136" y="168" width="32" height="32" fill="#c9bfae" stroke="#1b1b22" stroke-width="1"/>
<rect x="168" y="168" width="32" height="32" fill="#c9bfae" stroke="#1b1b22" stroke-width="1"/>
<rect x="200" y="168" width="32" height="32" fill="#c9bfae" stroke="#1b1b22" stroke-width="1"/>
<rect x="232" y="168" width="32" height="32" fill="#c9bfae" stroke="#1b1b22" stroke-width="1"/>
<rect x="264" y="168" width="32" height="32" fill="#c9bfae" stroke="#1b1b22" stroke-width="1"/>
<rect x="296" y="168" width="32" height="32" fill="#c9bfae" stroke="#1b1b22" stroke-width="1"/>
<rect x="328" y="168" width="32" height="32" fill="#c9bfae" stroke="#1b1b22" stroke-width="1"/>
<rect x="360" y="168" width="32" height="32" fill="#c9bfae" stroke="#1b1b22" stroke-width="1"/>
<rect x="392" y="168" width="32" height="32" fill="#c9bfae" stroke="#1b1b22" stroke-width="1"/>
<rect x="424" y="168" width="32" height="32" fill="#c9bfae" stroke="#1b1b22" stroke-width="1"/>
<rect x="456" y="168" width="32" height="32" fill="#c9bfae" stroke="#1b1b22" stroke-width="1"/>
<rect x="488" y="168" width="32" height="32" fill="#3d3d49" stroke="#1b1b22" stroke-width="1"/>
<rect x="8" y="200" width="32" height="32" fill="#3d3d49" stroke="#1b1b22" stroke-width="1"/>
<rect x="40" y="200" width="32" height="32" fill="#c9bfae" stroke="#1b1b22" stroke-width="1"/>
<rect x="72" y="200" width="32" height="32" fill="#c9bfae" stroke="#1b1b22" stroke-width="1"/>
<rect x="104" y="200" width="32" height="32" fill="#c9bfae" stroke="#1b1b22" stroke-width="1"/>
<rect x="136" y="200" width="32" height="32" fill="#c9bfae" stroke="#1b1b22" stroke-width="1"/>
<rect x="168" y="200" width="32" height="32" fill="#c9bfae" stroke="#1b1b22" stroke-width="1"/>
<rect x="200" y="200" width="32" height="32" fill="#c9bfae" stroke="#1b1b22" stroke-width="1"/>
<rect x="232" y="200" width="32" height="32" fill="#c9bfae" stroke="#1b1b22" stroke-width="1"/>
<rect x="264" y="200" width="32" height="32" fill="#c9bfae" stroke="#1b1b22" stroke-width="1"/>
<rect x="296" y="200" width="32" height="32" fill="#c9bfae" stroke="#1b1b22" stroke-width="1"/>
<rect x="328" y="200" width="32" height="32" fill="#c9bfae" stroke="#1b1b22" stroke-width="1"/>
<rect x="360" y="200" width="32" height="32" fill="#c9bfae" stroke="#1b1b22" stroke-width="1"/>
<rect x="392" y="200" width="32" height="32" fill="#c9bfae" stroke="#1b1b22" stroke-width="1"/>
<rect x="424" y="200" width="32" height="32" fill="#c9bfae" stroke="#1b1b22" stroke-width="1"/>
<rect x="456" y="200" width="32" height="32" fill="#c9bfae" stroke="#1b1b22" stroke-width="1"/>
<rect x="488" y="200" width="32" height="32" fill="#3d3d49" stroke="#1b1b22" stroke-width="1"/>
<rect x="8" y="232" width="32" height="32" fill="#3d3d49" stroke="#1b1b22" stroke-width="1"/>
<rect x="40" y="232" width="32" height="32" fill="#c9bfae" stroke="#1b1b22" stroke-width="1"/>
<rect x="72" y="232" width="32" height="32" fill="#c9bfae" stroke="#1b1b22" stroke-width="1"/>
<rect x="104" y="232" width="32" height="32" fill="#c9bfae" stroke="#1b1b22" stroke-width="1"/>
<rect x="136" y="232" width="32" height="32" fill="#c9bfae" stroke="#1b1b22" stroke-width="1"/>
<rect x="168" y="232" width="32" height="32" fill="#c9bfae" stroke="#1b1b22" stroke-width="1"/>
<rect x="200" y="232" width="32" height="32" fill="#c9bfae" stroke="#1b1b22" stroke-width="1"/>
<rect x="232" y="232" width="32" height="32" fill="#c9bfae" stroke="#1b1b22" stroke-width="1"/>
<rect x="264" y="232" width="32" height="32" fill="#c9bfae" stroke="#1b1b22" stroke-width="1"/>
<rect x="296" y="232" width="32" height="32" fill="#c9bfae" stroke="#1b1b22" stroke-width="1"/>
<rect x="328" y="232" width="32" height="32" fill="#c9bfae" stroke="#1b1b22" stroke-width="1"/>
<rect x="360" y="232" width="32" height="32" fill="#c9bfae" stroke="#1b1b22" stroke-width="1"/>
<rect x="392" y="232" width="32" height="32" fill="#c9bfae" stroke="#1b1b22" stroke-width="1"/>
<rect x="424" y="232" width="32" height="32" fill="#c9bfae" stroke="#1b1b22" stroke-width="1"/>
<rect x="456" y="232" width="32" height="32" fill="#c9bfae" stroke="#1b1b22" stroke-width="1"/>
<rect x="488" y="232" width="32" height="32" fill="#3d3d49" stroke="#1b1b22" stroke-width="1"/>
<rect x="8" y="264" width="32" height="32" fill="#3d3d49" stroke="#1b1b22" stroke-width="1"/>
<rect x="40" y="264" width="32" height="32" fill="#c9bfae" stroke="#1b1b22" stroke-width="1"/>
<rect x="72" y="264" width="32" height="32" fill="#c9bfae" stroke="#1b1b22" stroke-width="1"/>
<rect x="104" y="264" width="32" height="32" fill="#c9bfae" stroke="#1b1b22" stroke-width="1"/>
<rect x="136" y="264" width="32" height="32" fill="#c9bfae" stroke="#1b1b22" stroke-width="1"/>
<rect x="168" y="264" width="32" height="32" fill="#c9bfae" stroke="#1b1b22" stroke-width="1"/>
<rect x="200" y="264" width="32" height="32" fill="#c9bfae" stroke="#1b1b22" stroke-width="1"/>
<rect x="232" y="264" width="32" height="32" fill="#c9bfae" stroke="#1b1b22" stroke-width="1"/>
<rect x="264" y="264" width="32" height="32" fill="#c9bfae" stroke="#1b1b22" stroke-width="1"/>
<rect x="296" y="264" width="32" height="32" fill="#c9bfae" stroke="#1b1b22" stroke-width="1"/>
<rect x="328" y="264" width="32" height="32" fill="#c9bfae" stroke="#1b1b22" stroke-width="1"/>
<rect x="360" y="264" width="32" height="32" fill="#c9bfae" stroke="#1b1b22" stroke-width="1"/>
<rect x="392" y="264" width="32" height="32" fill="#c9bfae" stroke="#1b1b22" stroke-width="1"/>
<rect x="424" y="264" width="32" height="32" fill="#c9bfae" stroke="#1b1b22" stroke-width="1"/>
<rect x="456" y="264" width="32" height="32" fill="#c9bfae" stroke="#1b1b22" stroke-width="1"/>
<rect x="488" y="264" width="32" height="32" fill="#3d3d49" stroke="#1b1b22" stroke-width="1"/>
<rect x="8" y="296" width="32" height="32" fill="#3d3d49" stroke="#1b1b22" stroke-width="1"/>
<rect x="40" y="296" width="32" height="32" fill="#3d3d49" stroke="#1b1b22" stroke-width="1"/>
<rect x="72" y="296" width="32" height="32" fill="#3d3d49" stroke="#1b1b22" stroke-width="1"/>
<rect x="104" y="296" width="32" height="32" fill="#3d3d49" stroke="#1b1b22" stroke-width="1"/>
<rect x="136" y="296" width="32" height="32" fill="#3d3d49" stroke="#1b1b22" stroke-width="1"/>
<rect x="168" y="296" width="32" height="32" fill="#3d3d49" stroke="#1b1b22" stroke-width="1"/>
<rect x="200" y="296" width="32" height="32" fill="#3d3d49" stroke="#1b1b22" stroke-width="1"/>
<rect x="232" y="296" width="32" height="32" fill="#3d3d49" stroke="#1b1b22" stroke-width="1"/>
<rect x="264" y="296" width="32" height="32" fill="#3d3d49" stroke="#1b1b22" stroke-width="1"/>
<rect x="296" y="296" width="32" height="32" fill="#3d3d49" stroke="#1b1b22" stroke-width="1"/>
<rect x="328" y="296" width="32" height="32" fill="#3d3d49" stroke="#1b1b22" stroke-width="1"/>
<rect x="360" y="296" width="32" height="32" fill="#3d3d49" stroke="#1b1b22" stroke-width="1"/>
<rect x="392" y="296" width="32" height="32" fill="#3d3d49" stroke="#1b1b22" stroke-width="1"/>
<rect x="424" y="296" width="32" height="32" fill="#3d3d49" stroke="#1b1b22" stroke-width="1"/>
<rect x="456" y="296" width="32" height="32" fill="#3d3d49" stroke="#1b1b22" stroke-width="1"/>
<rect x="488" y="296" width="32" height="32" fill="#3d3d49" stroke="#1b1b22" stroke-width="1"/>
<rect x="136" y="72" width="32" height="32" fill="#d9a441" stroke="#6e5012" stroke-width="2"/>
<text x="152" y="93" fill="#40300a" font-size="16" text-anchor="middle" font-weight="bold">2</text>
<rect x="456" y="168" width="32" height="32" fill="#7fa66b" stroke="#3d2a1c" stroke-width="2"/>
<text x="472" y="189" fill="#fff6e8" font-size="16" text-anchor="middle" font-weight="bold">O</text>
<circle cx="56" cy="184" r="11" fill="#e07a9a" stroke="#5c2237" stroke-width="2"/>
<text x="56" y="189" fill="#ffffff" font-size="16" text-anchor="middle" font-weight="bold">@</text>
<circle cx="88" cy="184" r="11" fill="#8d99ae" stroke="#2b3040" stroke-width="2"/>
<text x="88" y="189" fill="#ffffff" font-size="16" text-anchor="middle" font-weight="bold">C</text>
<text x="8" y="348" fill="#cfc6b8" font-size="13">new_level · souls: 9</text>
<text x="8" y="366" fill="#cfc6b8" font-size="13">2 -&gt; </text>
</svg>
