# Blender 3.3.1
# www.blender.org
mtllib Coin.mtl
o Circle
v 0.000000 1.000000 0.100000
v 0.195090 0.980785 0.100000
v 0.382683 0.923880 0.100000
v 0.555570 0.831470 0.100000
v 0.707107 0.707107 0.100000
v 0.831470 0.555570 0.100000
v 0.923880 0.382683 0.100000
v 0.980785 0.195090 0.100000
v 1.000000 0.000000 0.100000
v 0.980785 -0.195090 0.100000
v 0.923880 -0.382683 0.100000
v 0.831470 -0.555570 0.100000
v 0.707107 -0.707107 0.100000
v 0.555570 -0.831470 0.100000
v 0.382683 -0.923880 0.100000
v 0.195090 -0.980785 0.100000
v 0.000000 -1.000000 0.100000
v -0.195090 -0.980785 0.100000
v -0.382683 -0.923880 0.100000
v -0.555570 -0.831470 0.100000
v -0.707107 -0.707107 0.100000
v -0.831470 -0.555570 0.100000
v -0.923879 -0.382683 0.100000
v -0.980785 -0.195090 0.100000
v -1.000000 0.000000 0.100000
v -0.980785 0.195090 0.100000
v -0.923879 0.382683 0.100000
v -0.831470 0.555570 0.100000
v -0.707107 0.707107 0.100000
v -0.555570 0.831470 0.100000
v -0.382683 0.923880 0.100000
v -0.195090 0.980785 0.100000
v -0.000000 1.000000 -0.100000
v 0.195090 0.980785 -0.100000
v 0.382683 0.923880 -0.100000
v 0.555570 0.831470 -0.100000
v 0.707107 0.707107 -0.100000
v 0.831470 0.555570 -0.100000
v 0.923879 0.382683 -0.100000
v 0.980785 0.195090 -0.100000
v 1.000000 -0.000000 -0.100000
v 0.980785 -0.195090 -0.100000
v 0.923879 -0.382683 -0.100000
v 0.831470 -0.555570 -0.100000
v 0.707107 -0.707107 -0.100000
v 0.555570 -0.831470 -0.100000
v 0.382683 -0.923880 -0.100000
v 0.195090 -0.980785 -0.100000
v -0.000000 -1.000000 -0.100000
v -0.195090 -0.980785 -0.100000
v -0.382683 -0.923880 -0.100000
v -0.555570 -0.831470 -0.100000
v -0.707107 -0.707107 -0.100000
v -0.831470 -0.555570 -0.100000
v -0.923880 -0.382683 -0.100000
v -0.980785 -0.195090 -0.100000
v -1.000000 -0.000000 -0.100000
v -0.980785 0.195090 -0.100000
v -0.923880 0.382683 -0.100000
v -0.831470 0.555570 -0.100000
v -0.707107 0.707107 -0.100000
v -0.555570 0.831470 -0.100000
v -0.382683 0.923880 -0.100000
v -0.195090 0.980785 -0.100000
vn -0.9569 0.2903 -0.0000
vn 0.9952 0.0980 -0.0000
vn -0.8819 0.4714 -0.0000
vn 0.9952 -0.0980 -0.0000
vn -0.7730 0.6344 -0.0000
vn 0.9569 -0.2903 -0.0000
vn -0.6344 0.7730 -0.0000
vn 0.8819 -0.4714 -0.0000
vn -0.4714 0.8819 -0.0000
vn -0.0980 -0.9952 -0.0000
vn 0.7730 -0.6344 -0.0000
vn -0.2903 0.9569 -0.0000
vn -0.2903 -0.9569 -0.0000
vn 0.6344 -0.7730 -0.0000
vn -0.0980 0.9952 -0.0000
vn -0.4714 -0.8819 -0.0000
vn 0.4714 -0.8819 -0.0000
vn 0.0980 0.9952 -0.0000
vn -0.6344 -0.7730 -0.0000
vn 0.2903 -0.9569 -0.0000
vn 0.2903 0.9569 -0.0000
vn -0.7730 -0.6344 -0.0000
vn 0.0980 -0.9952 -0.0000
vn 0.4714 0.8819 -0.0000
vn -0.8819 -0.4714 -0.0000
vn 0.6344 0.7730 -0.0000
vn -0.9569 -0.2903 -0.0000
vn 0.7730 0.6344 -0.0000
vn -0.9952 -0.0980 -0.0000
vn 0.8819 0.4714 -0.0000
vn -0.9952 0.0980 -0.0000
vn 0.9569 0.2903 -0.0000
vn -0.0000 -0.0000 1.0000
vn -0.0000 -0.0000 -1.0000
vt 0.344215 0.971696
vt 0.743825 0.531359
vt 0.375430 0.971697
vt 0.696309 0.527185
vt 0.406645 0.971697
vt 0.650520 0.513822
vt 0.437860 0.971697
vt 0.608218 0.491782
vt 0.469074 0.971697
vt 0.571028 0.461914
vt 0.500289 0.971697
vt 0.540380 0.425363
vt 0.531504 0.971697
vt 0.517452 0.383536
vt 0.562719 0.971697
vt 0.503124 0.338040
vt 0.593934 0.971697
vt 0.497948 0.290623
vt 0.625149 0.971697
vt 0.502121 0.243106
vt 0.656364 0.971697
vt 0.515485 0.197317
vt 0.687578 0.971697
vt 0.537524 0.155015
vt 0.718793 0.971696
vt 0.567393 0.117826
vt 0.750008 0.971696
vt 0.603943 0.087178
vt 0.781223 0.971696
vt 0.645770 0.064250
vt 0.812438 0.971696
vt 0.691267 0.049922
vt 0.843653 0.971696
vt 0.738684 0.044745
vt 0.874867 0.971696
vt 0.786200 0.048919
vt 0.906082 0.971696
vt 0.831989 0.062282
vt 0.937297 0.971696
vt 0.874291 0.084322
vt 0.968512 0.971696
vt 0.911481 0.114191
vt 0.999727 0.971695
vt 0.000850 0.971696
vt 0.942129 0.150741
vt 0.032065 0.971696
vt 0.965057 0.192568
vt 0.063280 0.971696
vt 0.979385 0.238064
vt 0.094495 0.971696
vt 0.984562 0.285482
vt 0.125710 0.971696
vt 0.980388 0.332998
vt 0.156925 0.971696
vt 0.967025 0.378787
vt 0.188140 0.971696
vt 0.944985 0.421089
vt 0.219355 0.971696
vt 0.915116 0.458279
vt 0.250570 0.971696
vt 0.878566 0.488926
vt 0.281785 0.971696
vt 0.836739 0.511855
vt 0.313000 0.971696
vt 0.791242 0.526182
vt 0.344215 0.939819
vt 0.469135 0.794210
vt 0.375430 0.939820
vt 0.489836 0.751237
vt 0.406645 0.939820
vt 0.501756 0.705051
vt 0.437860 0.939820
vt 0.504436 0.657427
vt 0.469074 0.939820
vt 0.497774 0.610196
vt 0.500289 0.939820
vt 0.482025 0.565172
vt 0.531504 0.939820
vt 0.457795 0.524085
vt 0.562719 0.939820
vt 0.426015 0.488514
vt 0.593934 0.939820
vt 0.387906 0.459828
vt 0.625149 0.939820
vt 0.344934 0.439127
vt 0.656364 0.939820
vt 0.298748 0.427207
vt 0.687578 0.939820
vt 0.251124 0.424527
vt 0.718793 0.939820
vt 0.203892 0.431189
vt 0.750008 0.939819
vt 0.158868 0.446938
vt 0.781223 0.939819
vt 0.117781 0.471168
vt 0.812438 0.939819
vt 0.082211 0.502948
vt 0.843652 0.939819
vt 0.053524 0.541057
vt 0.874867 0.939819
vt 0.032823 0.584030
vt 0.906082 0.939819
vt 0.020903 0.630216
vt 0.937297 0.939819
vt 0.018223 0.677839
vt 0.968512 0.939819
vt 0.024886 0.725071
vt 0.999727 0.939819
vt 0.000851 0.939819
vt 0.040634 0.770095
vt 0.032066 0.939819
vt 0.064864 0.811182
vt 0.063281 0.939819
vt 0.096644 0.846752
vt 0.094496 0.939819
vt 0.134753 0.875439
vt 0.125710 0.939819
vt 0.177726 0.896140
vt 0.156925 0.939819
vt 0.223912 0.908060
vt 0.188140 0.939819
vt 0.271536 0.910740
vt 0.219355 0.939819
vt 0.318767 0.904077
vt 0.250570 0.939819
vt 0.363792 0.888329
vt 0.281785 0.939819
vt 0.404878 0.864099
vt 0.313000 0.939819
vt 0.440449 0.832319
s 0
usemtl Material
f 11/21/1 10/19/1 42/84/1 43/86/1
f 25/50/2 24/48/2 56/113/2 57/115/2
f 12/23/3 11/21/3 43/86/3 44/88/3
f 26/52/4 25/50/4 57/115/4 58/117/4
f 13/25/5 12/23/5 44/88/5 45/90/5
f 27/54/6 26/52/6 58/117/6 59/119/6
f 14/27/7 13/25/7 45/90/7 46/92/7
f 28/56/8 27/54/8 59/119/8 60/121/8
f 15/29/9 14/27/9 46/92/9 47/94/9
f 2/3/10 1/1/10 33/66/10 34/68/10
f 29/58/11 28/56/11 60/121/11 61/123/11
f 16/31/12 15/29/12 47/94/12 48/96/12
f 3/5/13 2/3/13 34/68/13 35/70/13
f 30/60/14 29/58/14 61/123/14 62/125/14
f 17/33/15 16/31/15 48/96/15 49/98/15
f 4/7/16 3/5/16 35/70/16 36/72/16
f 31/62/17 30/60/17 62/125/17 63/127/17
f 18/35/18 17/33/18 49/98/18 50/100/18
f 5/9/19 4/7/19 36/72/19 37/74/19
f 32/64/20 31/62/20 63/127/20 64/129/20
f 19/37/21 18/35/21 50/100/21 51/102/21
f 6/11/22 5/9/22 37/74/22 38/76/22
f 1/1/23 32/64/23 64/129/23 33/66/23
f 20/39/24 19/37/24 51/102/24 52/104/24
f 7/13/25 6/11/25 38/76/25 39/78/25
f 21/41/26 20/39/26 52/104/26 53/106/26
f 8/15/27 7/13/27 39/78/27 40/80/27
f 22/43/28 21/41/28 53/106/28 54/108/28
f 9/17/29 8/15/29 40/80/29 41/82/29
f 23/46/30 22/44/30 54/109/30 55/111/30
f 10/19/31 9/17/31 41/82/31 42/84/31
f 24/48/32 23/46/32 55/111/32 56/113/32
f 34/69/33 33/67/33 64/130/33 63/128/33 62/126/33 61/124/33 60/122/33 59/120/33 58/118/33 57/116/33 56/114/33 55/112/33 54/110/33 53/107/33 52/105/33 51/103/33 50/101/33 49/99/33 48/97/33 47/95/33 46/93/33 45/91/33 44/89/33 43/87/33 42/85/33 41/83/33 40/81/33 39/79/33 38/77/33 37/75/33 36/73/33 35/71/33
f 2/4/34 3/6/34 4/8/34 5/10/34 6/12/34 7/14/34 8/16/34 9/18/34 10/20/34 11/22/34 12/24/34 13/26/34 14/28/34 15/30/34 16/32/34 17/34/34 18/36/34 19/38/34 20/40/34 21/42/34 22/45/34 23/47/34 24/49/34 25/51/34 26/53/34 27/55/34 28/57/34 29/59/34 30/61/34 31/63/34 32/65/34 1/2/34
